<svg width="605" height="175" viewBox="0 0 605 175" fill="none" xmlns="http://www.w3.org/2000/svg">
<path d="M79.7545 74.1388H47.5063L61.4255 6.00002L0 96.8577H32.2228L18.3036 165L79.7545 74.1388Z" fill="white"/>
<path d="M94.137 6.50176L86.6249 51.7809H91.9581C98.9466 51.7809 104.781 49.7397 109.464 45.6401C114.524 41.0949 117.577 35.5861 118.628 29.1241C119.707 22.6862 118.478 17.1843 114.946 12.608C111.616 8.53949 106.459 6.50176 99.4735 6.50176H94.137ZM100.485 0.799558C109.177 0.851365 115.525 3.45897 119.532 8.61548C123.886 14.3108 125.402 21.1458 124.075 29.1241C122.748 37.1541 118.969 44.003 112.732 49.6672C106.995 54.8306 99.7727 57.4347 91.0573 57.49H80.3876L89.8183 0.799558H100.485Z" fill="white"/>
<path d="M93.1504 6.33809L93.2892 5.50176H94.137H99.4735C106.654 5.50176 112.143 7.60355 115.72 11.9747L115.729 11.9858L115.738 11.9971C119.462 16.8224 120.733 22.6144 119.614 29.2873C118.525 35.9822 115.354 41.6931 110.132 46.384L110.132 46.3841L110.122 46.3925C105.234 50.6721 99.1562 52.7809 91.9581 52.7809H86.6249H85.4453L85.6384 51.6172L93.1504 6.33809ZM123.088 28.961L123.088 28.96C124.376 21.2175 122.902 14.6719 118.74 9.22582C114.979 4.38863 108.973 1.85066 100.481 1.79956H90.6657L81.5677 56.49H91.0541C99.5566 56.4355 106.532 53.9018 112.061 48.9254C118.137 43.4074 121.799 36.76 123.088 28.961Z" stroke="white" stroke-opacity="0.85" stroke-width="2"/>
<path d="M134.78 31.9565L130.536 57.4903H125.239L134.67 0.799863H139.967L135.72 26.3302H159.424L163.671 0.799863H168.965L159.534 57.4903H154.237L158.484 31.9565H134.78Z" fill="white"/>
<path d="M133.794 31.7925L133.933 30.9565H134.78H158.484H159.664L159.47 32.1205L155.417 56.4903H158.687L167.785 1.79986H164.518L160.41 26.4943L160.271 27.3302H159.424H135.72H134.54L134.734 26.1661L138.787 1.79986H135.517L126.419 56.4903H129.689L133.794 31.7925Z" stroke="white" stroke-opacity="0.85" stroke-width="2"/>
<path d="M204.612 0.798276L203.672 6.38305H181.061L177.754 26.3321H200.365L199.429 31.9549H176.814L173.51 51.8625H196.125L195.185 57.4887H167.276L176.704 0.798276H204.612Z" fill="white"/>
<path d="M199.185 27.3321H177.754H176.575L176.768 26.1686L180.075 6.21949L180.214 5.38305H181.061H202.827L203.43 1.79827H177.551L168.456 56.4887H194.338L194.944 52.8625H173.51H172.331L172.524 51.6988L175.828 31.7911L175.967 30.9549H176.814H198.581L199.185 27.3321Z" stroke="white" stroke-opacity="0.85" stroke-width="2"/>
<path d="M223.243 27.4082C219.689 26.0785 216.973 24.2031 215.081 21.782C213.191 19.3644 212.537 16.3699 213.139 12.8056C213.718 9.3484 215.383 6.37124 218.134 3.8707C220.892 1.37016 223.932 0.119886 227.262 0.119886C230.544 0.119886 233.162 1.37016 235.113 3.8707C236.166 5.20041 236.879 7.08963 237.256 9.53491L232.111 11.5277C231.809 9.80085 231.347 8.54022 230.719 7.74239C229.643 6.35743 228.179 5.66667 226.323 5.66667C224.472 5.66667 222.781 6.35743 221.24 7.74239C219.702 9.12391 218.762 10.8094 218.437 12.8056C218.108 14.8019 218.476 16.4908 219.526 17.8723C220.628 19.2815 222.267 20.5732 224.446 21.7406C228.456 23.1774 231.659 25.4534 234.062 28.5618C236.667 31.9431 237.568 36.0151 236.768 40.7744C235.965 45.5579 233.701 49.6437 229.955 53.0319C226.212 56.4235 222.092 58.1262 217.611 58.1262C213.081 58.1262 209.523 56.4235 206.941 53.0215C204.837 50.3068 203.838 46.8116 203.936 42.5255L209.347 40.6155C209.097 44.3111 209.734 47.1432 211.263 49.1118C213.064 51.3982 215.497 52.5414 218.55 52.5414C221.604 52.5414 224.407 51.3844 226.967 49.0842C229.519 46.784 231.058 44.0175 231.581 40.7744C232.111 37.5555 231.497 34.789 229.744 32.475C228.088 30.3474 225.923 28.6585 223.243 27.4082Z" fill="white"/>
<path d="M223.593 26.4716L223.63 26.4854L223.666 26.502C226.475 27.8128 228.771 29.5967 230.533 31.8609L230.533 31.8608L230.541 31.8711C232.48 34.431 233.136 37.4828 232.568 40.9358C232.006 44.4146 230.349 47.3827 227.636 49.8271L227.635 49.828C224.919 52.2694 221.884 53.5414 218.55 53.5414C215.208 53.5414 212.479 52.2716 210.477 49.7308L210.477 49.7308L210.473 49.7251C208.968 47.787 208.283 45.1914 208.295 42.0476L204.93 43.2351C204.953 47.0279 205.909 50.0578 207.731 52.4089L207.731 52.4089L207.737 52.417C210.117 55.5529 213.371 57.1262 217.611 57.1262C221.811 57.1262 225.699 55.539 229.284 52.2908L229.284 52.2902C232.87 49.0474 235.017 45.162 235.782 40.6088L235.782 40.6086C236.542 36.0842 235.682 32.3034 233.271 29.1729C230.994 26.2278 227.954 24.0596 224.109 22.682L224.039 22.657L223.974 22.622C221.715 21.4119 219.952 20.0395 218.738 18.4885L218.738 18.4886L218.73 18.4776C217.487 16.843 217.085 14.8656 217.45 12.6449C217.813 10.415 218.87 8.52644 220.572 6.99841C222.273 5.46995 224.195 4.66667 226.323 4.66667C228.466 4.66667 230.229 5.48315 231.507 7.12658C232.105 7.888 232.538 8.92249 232.848 10.1699L236.13 8.89872C235.747 6.95255 235.131 5.50425 234.329 4.49175L234.324 4.48588C232.57 2.23794 230.248 1.11988 227.262 1.11988C224.211 1.11988 221.403 2.25627 218.806 4.61113C216.211 6.97053 214.665 9.74927 214.125 12.9708L214.125 12.9721C213.562 16.311 214.182 19.0081 215.868 21.1663C217.624 23.4122 220.172 25.1918 223.593 26.4716Z" stroke="white" stroke-opacity="0.85" stroke-width="2"/>
<path d="M240.259 57.4886L249.687 0.798154H254.984L246.497 51.8624H265.917L264.978 57.4886H240.259Z" fill="white"/>
<path d="M245.51 51.6984L253.804 1.79815H250.534L241.439 56.4886H264.131L264.737 52.8624H246.497H245.317L245.51 51.6984Z" stroke="white" stroke-opacity="0.85" stroke-width="2"/>
<path d="M308.477 0.798276L307.538 6.38305H284.923L281.616 26.3321H304.23L303.29 31.9549H280.679L277.375 51.8625H299.99L299.05 57.4887H271.138L280.566 0.798276H308.477Z" fill="white"/>
<path d="M303.049 27.3321H281.616H280.437L280.629 26.1686L283.937 6.21949L284.075 5.38305H284.923H306.692L307.295 1.79827H281.413L272.318 56.4887H298.203L298.809 52.8625H277.375H276.196L276.389 51.6988L279.693 31.7911L279.832 30.9549H280.679H302.444L303.049 27.3321Z" stroke="white" stroke-opacity="0.85" stroke-width="2"/>
<path d="M326.656 34.6277L313.885 0.797849H319.934L330.34 28.366L349.907 0.797849H355.992L331.953 34.6277L328.161 57.4883H322.864L326.656 34.6277Z" fill="white"/>
<path d="M327.591 34.2745L327.686 34.5261L327.642 34.7913L324.043 56.4883H327.313L330.967 34.464L331.004 34.2365L331.138 34.0484L354.054 1.79785H350.424L331.156 28.9448L330.068 30.4769L329.404 28.7191L319.242 1.79785H315.331L327.591 34.2745Z" stroke="white" stroke-opacity="0.85" stroke-width="2"/>
<path d="M376.953 43.4072L406.969 1.3425e-05L398.403 57.4883H395.399L402.198 12.0088L375.978 49.7898L361.064 12.0883L354.303 57.4883H351.298L359.864 0.079453L376.953 43.4072Z" fill="white"/>
<path d="M434.581 33.5113L430.035 9.85287L418.389 33.5113H434.581ZM439.199 57.4875L435.215 36.6612H416.848L406.594 57.4875H403.401L431.423 0.600178L442.356 57.4875H439.199Z" fill="white"/>
<path d="M458.996 4.30912L454.45 34.7093H463.468C467.399 34.7093 470.99 33.2208 474.245 30.254C477.503 27.2872 479.442 23.6987 480.069 19.4712C480.193 18.5905 480.255 17.7409 480.255 16.9154C480.255 13.8036 479.328 11.0751 477.481 8.73687C475.097 5.78389 471.939 4.30912 468.008 4.30912H458.996ZM463.92 37.9041C463.614 37.9248 463.315 37.9386 463.016 37.9386H453.998L451.068 57.4871H448.066L456.483 1.07638H470.417C474.375 1.66352 477.549 3.45604 479.955 6.46428C482.186 9.3102 483.298 12.6189 483.298 16.3974C483.298 17.3817 483.22 18.404 483.074 19.4712C482.32 24.5759 479.981 28.9243 476.05 32.5162C473.318 35.0167 470.391 36.6504 467.26 37.4206L476.502 57.4871H472.817L463.92 37.9041Z" fill="white"/>
<path d="M527.174 48.5136L529.161 50.6653C523.229 55.6664 516.758 58.1669 509.746 58.1669C502.205 58.1669 496.212 55.3486 491.75 49.7086C488.244 45.2947 486.491 40.1347 486.491 34.2287C486.491 32.6331 486.618 30.9856 486.865 29.2829C488.043 21.3323 491.701 14.5214 497.838 8.87105C503.971 3.2172 510.807 0.398909 518.345 0.398909C525.356 0.398909 531.079 2.91326 535.512 7.93852L532.923 10.0937C528.992 5.81099 523.967 3.66964 517.857 3.66964C511.194 3.66964 505.135 6.17018 499.678 11.1713C494.215 16.1689 490.963 22.2096 489.909 29.2829C489.688 30.7991 489.571 32.2635 489.571 33.6727C489.571 38.9121 491.135 43.4987 494.267 47.436C498.247 52.4371 503.571 54.9342 510.234 54.9342C516.345 54.9342 521.99 52.7928 527.174 48.5136Z" fill="white"/>
<path d="M563.124 33.5113L558.578 9.85287L546.932 33.5113H563.124ZM567.742 57.4875L563.758 36.6612H545.391L535.141 57.4875H531.944L559.966 0.600178L570.899 57.4875H567.742Z" fill="white"/>
<path d="M576.607 57.4886L585.023 1.0779H588.028L580.099 54.2973H600.349L599.858 57.4886H576.607Z" fill="white"/>
<path d="M511.961 56.4061L504.758 67.8036H501.753L508.469 56.4234L511.961 56.4061Z" fill="white"/>
<path d="M117.866 89.7231L114.22 109.973H120.341C123.183 109.973 125.788 108.978 128.158 106.999C130.526 105.016 131.963 102.62 132.477 99.8185C132.978 97.0244 132.389 94.6447 130.737 92.6726C129.072 90.7074 126.832 89.7231 123.989 89.7231H117.866ZM113.447 114.262L110.887 128.519H106.53L114.282 85.4508H126.331C129.729 85.8963 132.409 87.2985 134.367 89.654C136.711 92.4896 137.537 95.8708 136.835 99.8185C136.113 103.821 134.067 107.223 130.698 110.042C127.332 112.853 123.625 114.262 119.567 114.262H113.447Z" fill="white"/>
<path d="M167.888 85.4497L167.11 89.6909H148.512L145.794 104.843H164.395L163.621 109.125H145.023L142.307 124.239H160.902L160.125 128.522H137.176L144.929 85.4497H167.888Z" fill="white"/>
<path d="M178.387 89.7231L174.745 109.973H180.862C183.704 109.973 186.309 108.978 188.673 106.999C191.047 105.016 192.488 102.62 193.005 99.8185C193.496 97.0244 192.92 94.6447 191.252 92.6726C189.6 90.7074 187.346 89.7231 184.504 89.7231H178.387ZM180.302 114.262H173.974L171.408 128.519H167.051L174.803 85.4508H186.855C190.25 85.8963 192.93 87.2985 194.884 89.654C197.239 92.4896 198.058 95.8708 197.356 99.8185C196.634 103.821 194.595 107.223 191.239 110.028C188.891 111.962 186.845 113.133 185.093 113.544L192.322 128.519H187.037L180.302 114.262Z" fill="white"/>
<path d="M213.978 105.67C211.058 104.658 208.814 103.235 207.256 101.394C205.702 99.5529 205.178 97.2769 205.663 94.5691C206.141 91.9408 207.513 89.6854 209.777 87.7824C212.043 85.8828 214.544 84.9365 217.285 84.9365C219.985 84.9365 222.134 85.8828 223.744 87.7824C224.609 88.7909 225.201 90.2277 225.497 92.0824L221.266 93.602C221.022 92.2896 220.642 91.3329 220.128 90.7216C219.237 89.6682 218.037 89.1466 216.508 89.1466C214.99 89.1466 213.591 89.6682 212.326 90.7216C211.064 91.7715 210.29 93.0563 210.021 94.5691C209.757 96.0888 210.06 97.3701 210.925 98.4201C211.825 99.4907 213.178 100.468 214.97 101.359C218.261 102.447 220.905 104.178 222.876 106.547C225.022 109.113 225.763 112.204 225.097 115.82C224.44 119.45 222.57 122.565 219.494 125.132C216.414 127.712 213.029 129 209.347 129C205.617 129 202.691 127.712 200.57 125.118C198.84 123.056 198.014 120.41 198.102 117.15L202.547 115.686C202.349 118.507 202.866 120.662 204.125 122.151C205.604 123.892 207.608 124.755 210.118 124.755C212.629 124.755 214.938 123.878 217.032 122.137C219.139 120.383 220.404 118.279 220.84 115.82C221.266 113.375 220.765 111.275 219.328 109.507C217.962 107.901 216.183 106.612 213.978 105.67Z" fill="white"/>
<path d="M256.002 89.1461C251.02 89.1461 246.434 90.8799 242.265 94.3579C238.093 97.8358 235.566 102.018 234.675 106.905C233.814 111.817 234.838 116.006 237.758 119.491C240.669 122.99 244.62 124.734 249.602 124.734C254.61 124.734 259.192 122.99 263.364 119.491C267.533 116.006 270.047 111.817 270.919 106.905C271.8 102.018 270.789 97.8358 267.875 94.3579C264.968 90.8799 261.003 89.1461 256.002 89.1461ZM271.54 91.3116C275.159 95.6289 276.421 100.827 275.309 106.905C274.213 113.029 271.085 118.244 265.917 122.551C260.746 126.848 255.049 128.999 248.825 128.999C242.63 128.999 237.719 126.848 234.096 122.551C230.467 118.244 229.205 113.029 230.295 106.905C231.41 100.827 234.545 95.6289 239.716 91.3116C244.88 86.9978 250.565 84.8427 256.769 84.8427C262.987 84.8427 267.907 86.9978 271.54 91.3116Z" fill="white"/>
<path d="M288.956 85.4497L308.826 121.697L315.343 85.4497H319.697L311.944 128.522H306.816L287.441 93.1482L281.08 128.522H276.722L284.478 85.4497H288.956Z" fill="white"/>
<path d="M342.283 106.179L339.718 92.723L332.336 106.179H342.283ZM342.96 85.4493L351.152 128.521H346.55L343.083 110.424H329.988L319.92 128.521H315.282L339.165 85.4493H342.96Z" fill="white"/>
<path d="M354.669 128.521L362.432 85.4485H366.783L359.801 124.241H375.778L375.004 128.521H354.669Z" fill="white"/>
<path d="M415.235 89.6892L408.249 128.52H403.914L410.903 89.6892H400.269L401.046 85.448H426.603L425.83 89.6892H415.235Z" fill="white"/>
<path d="M434.632 89.7231L430.973 109.973H437.097C439.936 109.973 442.547 108.978 444.908 106.999C447.279 105.016 448.726 102.62 449.24 99.8185C449.731 97.0244 449.152 94.6447 447.487 92.6726C445.835 90.7074 443.581 89.7231 440.742 89.7231H434.632ZM436.544 114.262H430.209L427.643 128.519H423.286L431.038 85.4508H443.093C446.489 85.8963 449.165 87.2985 451.119 89.654C453.471 92.4896 454.29 95.8708 453.597 99.8185C452.872 103.821 450.833 107.223 447.474 110.028C445.136 111.962 443.08 113.133 441.328 113.544L448.554 128.519H443.269L436.544 114.262Z" fill="white"/>
<path d="M477.561 106.179L474.996 92.723L467.62 106.179H477.561ZM478.254 85.4493L486.43 128.521H481.835L478.368 110.424H465.272L455.204 128.521H450.567L474.449 85.4493H478.254Z" fill="white"/>
<path d="M502.371 85.4497L494.615 128.522H490.257L498.026 85.4497H502.371Z" fill="white"/>
<path d="M513.987 85.4497L533.86 121.697L540.371 85.4497H544.728L536.979 128.522H531.841L512.475 93.1482L506.111 128.522H501.753L509.503 85.4497H513.987Z" fill="white"/>
<path d="M574.518 85.4497L573.744 89.6909H555.146L552.427 104.843H571.025L570.254 109.125H551.653L548.934 124.239H567.542L566.762 128.522H543.816L551.562 85.4497H574.518Z" fill="white"/>
<path d="M585.024 89.7231L581.366 109.973H587.489C590.335 109.973 592.939 108.978 595.3 106.999C597.671 105.016 599.118 102.62 599.632 99.8185C600.123 97.0244 599.544 94.6447 597.879 92.6726C596.227 90.7074 593.974 89.7231 591.135 89.7231H585.024ZM586.936 114.262H580.605L578.039 128.519H573.681L581.431 85.4508H593.486C596.881 85.8963 599.564 87.2985 601.512 89.654C603.863 92.4896 604.682 95.8708 603.99 99.8185C603.264 103.821 601.225 107.223 597.866 110.028C595.528 111.962 593.473 113.133 591.72 113.544L598.946 128.519H593.661L586.936 114.262Z" fill="white"/>
</svg>
