<svg width="286" height="129" viewBox="0 0 286 129" fill="none" xmlns="http://www.w3.org/2000/svg">
<path d="M64.5841 55.1778H38.4699L49.7415 0L0 73.5752H26.0936L14.822 128.756L64.5841 55.1778Z" fill="white"/>
<path d="M70.1901 21.6595L67.0198 40.7682H69.2706C72.2199 40.7682 74.682 39.9068 76.6583 38.1767C78.7937 36.2585 80.0824 33.9337 80.5257 31.2066C80.9813 28.4897 80.4626 26.1678 78.9721 24.2365C77.5668 22.5195 75.3902 21.6595 72.4422 21.6595H70.1901ZM72.869 19.253C76.5375 19.2749 79.2164 20.3754 80.9072 22.5515C82.7449 24.9551 83.3844 27.8396 82.8245 31.2066C82.2645 34.5954 80.6698 37.4858 78.0375 39.8762C75.6166 42.0553 72.5685 43.1543 68.8904 43.1776H64.3876L68.3676 19.253H72.869Z" fill="white"/>
<path d="M87.3424 32.4019L85.5514 43.1777H83.3158L87.2958 19.2532H89.5314L87.7391 30.0275H97.7425L99.5349 19.2532H101.769L97.7892 43.1777H95.5535L97.3459 32.4019H87.3424Z" fill="white"/>
<path d="M116.813 19.2525L116.416 21.6094H106.874L105.478 30.0283H115.021L114.625 32.4012H105.082L103.687 40.8027H113.231L112.834 43.1771H101.056L105.035 19.2525H116.813Z" fill="white"/>
<path d="M124.676 30.4825C123.176 29.9213 122.03 29.1298 121.231 28.1081C120.434 27.0878 120.158 25.8241 120.412 24.3199C120.656 22.8608 121.359 21.6044 122.52 20.5491C123.683 19.4938 124.967 18.9662 126.372 18.9662C127.757 18.9662 128.861 19.4938 129.685 20.5491C130.13 21.1103 130.43 21.9076 130.589 22.9395L128.418 23.7806C128.291 23.0518 128.096 22.5198 127.831 22.1831C127.377 21.5986 126.759 21.3071 125.975 21.3071C125.194 21.3071 124.481 21.5986 123.83 22.1831C123.181 22.7661 122.784 23.4774 122.647 24.3199C122.509 25.1623 122.664 25.8751 123.107 26.4581C123.572 27.0528 124.264 27.5979 125.183 28.0906C126.876 28.6969 128.227 29.6575 129.242 30.9693C130.341 32.3963 130.721 34.1147 130.383 36.1233C130.044 38.142 129.089 39.8663 127.508 41.2962C125.929 42.7275 124.19 43.4461 122.299 43.4461C120.387 43.4461 118.885 42.7275 117.796 41.2918C116.908 40.1462 116.486 38.6711 116.528 36.8623L118.811 36.0562C118.706 37.6158 118.975 38.811 119.62 39.6418C120.38 40.6068 121.407 41.0892 122.695 41.0892C123.984 41.0892 125.167 40.6009 126.247 39.6302C127.324 38.6594 127.974 37.4919 128.194 36.1233C128.418 34.7648 128.159 33.5973 127.419 32.6207C126.721 31.7229 125.806 31.0101 124.676 30.4825Z" fill="white"/>
<path d="M131.857 43.177L135.835 19.2524H138.071L134.489 40.8026H142.685L142.288 43.177H131.857Z" fill="white"/>
<path d="M160.646 19.2525L160.25 21.6094H150.706L149.31 30.0283H158.854L158.457 32.4012H148.915L147.521 40.8027H157.064L156.668 43.1771H144.888L148.867 19.2525H160.646Z" fill="white"/>
<path d="M168.318 33.5292L162.929 19.2523H165.481L169.873 30.8866L178.131 19.2523H180.698L170.554 33.5292L168.953 43.1769H166.718L168.318 33.5292Z" fill="white"/>
<path d="M189.545 37.2344L202.212 18.9156L198.597 43.1769H197.329L200.199 23.9836L189.133 39.928L182.839 24.0171L179.986 43.1769H178.718L182.333 18.9491L189.545 37.2344Z" fill="white"/>
<path d="M213.865 33.0581L211.946 23.0737L207.031 33.0581H213.865ZM215.813 43.1765L214.132 34.3874H206.381L202.054 43.1765H200.706L212.532 19.1689L217.146 43.1765H215.813Z" fill="white"/>
<path d="M224.168 20.7342L222.25 33.5637H226.056C227.715 33.5637 229.23 32.9355 230.604 31.6834C231.979 30.4314 232.797 28.917 233.062 27.1329C233.114 26.7612 233.14 26.4027 233.14 26.0543C233.14 24.741 232.749 23.5896 231.969 22.6028C230.963 21.3566 229.631 20.7342 227.971 20.7342H224.168ZM226.246 34.912C226.117 34.9207 225.991 34.9265 225.865 34.9265H222.059L220.823 43.1764H219.556L223.108 19.3699H228.988C230.659 19.6177 231.998 20.3742 233.014 21.6437C233.955 22.8447 234.424 24.2411 234.424 25.8357C234.424 26.2511 234.391 26.6825 234.33 27.1329C234.011 29.2872 233.025 31.1223 231.365 32.6382C230.213 33.6934 228.977 34.3829 227.656 34.7079L231.556 43.1764H230.001L226.246 34.912Z" fill="white"/>
<path d="M252.941 39.3894L253.779 40.2974C251.276 42.408 248.545 43.4633 245.586 43.4633C242.404 43.4633 239.874 42.2739 237.991 39.8937C236.512 38.0309 235.772 35.8533 235.772 33.3609C235.772 32.6875 235.826 31.9922 235.93 31.2736C236.427 27.9183 237.971 25.044 240.56 22.6594C243.149 20.2733 246.034 19.084 249.215 19.084C252.174 19.084 254.589 20.1451 256.46 22.2658L255.367 23.1754C253.708 21.368 251.588 20.4643 249.009 20.4643C246.197 20.4643 243.64 21.5196 241.337 23.6301C239.031 25.7392 237.659 28.2885 237.214 31.2736C237.121 31.9135 237.072 32.5315 237.072 33.1262C237.072 35.3373 237.732 37.273 239.053 38.9346C240.733 41.0452 242.98 42.099 245.792 42.099C248.371 42.099 250.753 41.1953 252.941 39.3894Z" fill="white"/>
<path d="M268.112 33.0581L266.194 23.0737L261.279 33.0581H268.112ZM270.061 43.1765L268.38 34.3874H260.629L256.303 43.1765H254.954L266.78 19.1689L271.394 43.1765H270.061Z" fill="white"/>
<path d="M273.803 43.177L277.354 19.3705H278.623L275.277 41.8302H283.823L283.615 43.177H273.803Z" fill="white"/>
<path d="M246.521 42.7202L243.481 47.5302H242.213L245.047 42.7275L246.521 42.7202Z" fill="white"/>
<path d="M80.2043 56.7806L78.6658 65.3264H81.2487C82.4482 65.3264 83.5475 64.9066 84.548 64.0714C85.5471 63.2348 86.1537 62.2232 86.3705 61.0411C86.5819 59.8619 86.3335 58.8577 85.6363 58.0254C84.9336 57.1961 83.988 56.7806 82.7886 56.7806H80.2043ZM78.3392 67.1367L77.2591 73.1535H75.4201L78.6919 54.9776H83.7767C85.2109 55.1657 86.3417 55.7574 87.1679 56.7515C88.1574 57.9482 88.506 59.3751 88.2096 61.0411C87.9049 62.7304 87.0416 64.1662 85.6198 65.3555C84.1994 66.542 82.6348 67.1367 80.9221 67.1367H78.3392Z" fill="white"/>
<path d="M101.314 54.9772L100.986 56.7671H93.1376L91.9903 63.1615H99.8404L99.5138 64.9689H91.665L90.5191 71.3472H98.3665L98.0385 73.1546H88.3534L91.6252 54.9772H101.314Z" fill="white"/>
<path d="M105.745 56.7806L104.208 65.3264H106.79C107.989 65.3264 109.089 64.9066 110.086 64.0714C111.088 63.2348 111.696 62.2232 111.914 61.0411C112.122 59.8619 111.879 58.8577 111.175 58.0254C110.477 57.1961 109.526 56.7806 108.327 56.7806H105.745ZM106.554 67.1367H103.883L102.8 73.1535H100.961L104.233 54.9776H109.319C110.752 55.1657 111.883 55.7574 112.708 56.7515C113.701 57.9482 114.047 59.3751 113.751 61.0411C113.446 62.7304 112.585 64.1662 111.169 65.3497C110.178 66.1659 109.315 66.6601 108.575 66.8335L111.626 73.1535H109.396L106.554 67.1367Z" fill="white"/>
<path d="M120.766 63.5104C119.533 63.0834 118.586 62.4828 117.929 61.706C117.273 60.9291 117.052 59.9685 117.256 58.8258C117.458 57.7166 118.037 56.7648 118.992 55.9617C119.949 55.16 121.004 54.7606 122.161 54.7606C123.3 54.7606 124.208 55.16 124.887 55.9617C125.252 56.3873 125.502 56.9936 125.627 57.7764L123.841 58.4177C123.738 57.8638 123.578 57.4601 123.361 57.2021C122.985 56.7575 122.478 56.5374 121.833 56.5374C121.192 56.5374 120.602 56.7575 120.068 57.2021C119.536 57.6452 119.209 58.1874 119.095 58.8258C118.984 59.4671 119.112 60.0079 119.477 60.451C119.857 60.9028 120.428 61.3153 121.184 61.6914C122.573 62.1505 123.689 62.8808 124.52 63.8807C125.426 64.9636 125.739 66.2682 125.458 67.7942C125.181 69.3261 124.391 70.6409 123.093 71.7238C121.793 72.8126 120.365 73.3563 118.811 73.3563C117.237 73.3563 116.002 72.8126 115.107 71.718C114.377 70.8478 114.028 69.7313 114.065 68.3554L115.942 67.7374C115.858 68.9282 116.076 69.8377 116.607 70.466C117.232 71.2006 118.077 71.565 119.137 71.565C120.196 71.565 121.17 71.1947 122.054 70.4601C122.944 69.7197 123.477 68.832 123.661 67.7942C123.841 66.7623 123.63 65.8761 123.023 65.1298C122.447 64.452 121.696 63.9084 120.766 63.5104Z" fill="white"/>
<path d="M138.5 56.5372C136.398 56.5372 134.463 57.2689 132.703 58.7367C130.943 60.2045 129.876 61.9696 129.5 64.0321C129.137 66.1047 129.569 67.8728 130.801 69.3434C132.03 70.82 133.697 71.556 135.8 71.556C137.913 71.556 139.847 70.82 141.608 69.3434C143.367 67.8728 144.428 66.1047 144.796 64.0321C145.168 61.9696 144.741 60.2045 143.511 58.7367C142.284 57.2689 140.611 56.5372 138.5 56.5372ZM145.058 57.4511C146.585 59.2731 147.118 61.4667 146.648 64.0321C146.186 66.6163 144.866 68.8173 142.685 70.6349C140.503 72.4481 138.098 73.3561 135.472 73.3561C132.857 73.3561 130.785 72.4481 129.256 70.6349C127.724 68.8173 127.192 66.6163 127.652 64.0321C128.122 61.4667 129.445 59.2731 131.627 57.4511C133.807 55.6306 136.206 54.7211 138.824 54.7211C141.448 54.7211 143.525 55.6306 145.058 57.4511Z" fill="white"/>
<path d="M152.408 54.9772L160.793 70.2744L163.544 54.9772H165.381L162.109 73.1546H159.945L151.768 58.2261L149.084 73.1546H147.245L150.518 54.9772H152.408Z" fill="white"/>
<path d="M174.913 63.7254L173.83 58.0467L170.715 63.7254H174.913ZM175.199 54.977L178.656 73.1544H176.714L175.251 65.5167H169.724L165.475 73.1544H163.518L173.597 54.977H175.199Z" fill="white"/>
<path d="M180.14 73.1541L183.416 54.9768H185.253L182.306 71.3482H189.049L188.722 73.1541H180.14Z" fill="white"/>
<path d="M205.7 56.7664L202.752 73.1538H200.923L203.872 56.7664H199.384L199.712 54.9765H210.498L210.171 56.7664H205.7Z" fill="white"/>
<path d="M213.886 56.7806L212.342 65.3264H214.926C216.124 65.3264 217.227 64.9066 218.223 64.0714C219.223 63.2348 219.834 62.2232 220.051 61.0411C220.258 59.8619 220.014 58.8577 219.311 58.0254C218.614 57.1961 217.663 56.7806 216.465 56.7806H213.886ZM214.693 67.1367H212.02L210.937 73.1535H209.098L212.37 54.9776H217.457C218.89 55.1657 220.019 55.7574 220.844 56.7515C221.836 57.9482 222.182 59.3751 221.89 61.0411C221.584 62.7304 220.723 64.1662 219.306 65.3497C218.319 66.1659 217.452 66.6601 216.712 66.8335L219.761 73.1535H217.531L214.693 67.1367Z" fill="white"/>
<path d="M232.003 63.7254L230.921 58.0467L227.808 63.7254H232.003ZM232.296 54.977L235.746 73.1544H233.807L232.344 65.5167H226.817L222.568 73.1544H220.611L230.69 54.977H232.296Z" fill="white"/>
<path d="M242.473 54.9772L239.2 73.1546H237.361L240.64 54.9772H242.473Z" fill="white"/>
<path d="M247.376 54.9772L255.763 70.2744L258.51 54.9772H260.349L257.079 73.1546H254.91L246.738 58.2261L244.052 73.1546H242.213L245.483 54.9772H247.376Z" fill="white"/>
<path d="M272.921 54.9772L272.594 56.7671H264.746L263.598 63.1615H271.447L271.122 64.9689H263.272L262.124 71.3472H269.977L269.648 73.1546H259.964L263.233 54.9772H272.921Z" fill="white"/>
<path d="M277.355 56.7806L275.811 65.3264H278.395C279.596 65.3264 280.695 64.9066 281.692 64.0714C282.692 63.2348 283.303 62.2232 283.52 61.0411C283.727 59.8619 283.483 58.8577 282.78 58.0254C282.083 57.1961 281.132 56.7806 279.934 56.7806H277.355ZM278.162 67.1367H275.49L274.407 73.1535H272.568L275.838 54.9776H280.926C282.359 55.1657 283.491 55.7574 284.313 56.7515C285.305 57.9482 285.651 59.3751 285.359 61.0411C285.053 62.7304 284.192 64.1662 282.774 65.3497C281.788 66.1659 280.92 66.6601 280.181 66.8335L283.23 73.1535H281L278.162 67.1367Z" fill="white"/>
</svg>
