<svg width="632" height="159" viewBox="0 0 632 159" fill="none" xmlns="http://www.w3.org/2000/svg">
<path d="M79.7545 68.1388H47.5063L61.4255 1.52588e-05L0 90.8577H32.2228L18.3036 159L79.7545 68.1388Z" fill="white"/>
<path d="M125.137 17.5018L117.625 62.7809H122.958C129.947 62.7809 135.781 60.7397 140.464 56.6401C145.524 52.0949 148.577 46.5861 149.628 40.1241C150.707 33.6862 149.478 28.1843 145.946 23.608C142.616 19.5395 137.459 17.5018 130.473 17.5018H125.137ZM131.485 11.7996C140.177 11.8514 146.525 14.459 150.532 19.6155C154.886 25.3108 156.402 32.1458 155.075 40.1241C153.748 48.1541 149.969 55.003 143.732 60.6672C137.995 65.8306 130.773 68.4347 122.057 68.49H111.388L120.818 11.7996H131.485Z" fill="white"/>
<path d="M149.134 40.0438L149.135 40.0414C150.194 33.7242 148.987 28.3696 145.555 23.9192C142.349 20.0056 137.358 18.0018 130.473 18.0018H125.561L118.215 62.2809H122.958C129.841 62.2809 135.552 60.2742 140.132 56.266C145.109 51.7944 148.103 46.3879 149.134 40.0438ZM131.485 11.2995L131.488 11.2996C140.279 11.352 146.797 13.9938 150.927 19.3087L150.929 19.3118C155.378 25.1313 156.914 32.1104 155.568 40.2056C154.222 48.3508 150.386 55.3001 144.068 61.0373L144.066 61.0388C138.227 66.2949 130.881 68.9341 122.061 68.99V68.99H122.057H111.388H110.798L110.894 68.4079L120.325 11.7175L120.395 11.2996H120.818L131.485 11.2995Z" stroke="white" stroke-opacity="0.85"/>
<path d="M165.78 42.9565L161.536 68.4903H156.239L165.67 11.7999H170.967L166.72 37.3302H190.424L194.671 11.7999H199.965L190.534 68.4903H185.237L189.484 42.9565H165.78Z" fill="white"/>
<path d="M171.46 11.8819L167.31 36.8302H190L194.178 11.7178L194.247 11.2999H194.671H199.965H200.555L200.458 11.8819L191.028 68.5723L190.958 68.9903H190.534H185.237H184.647L184.744 68.4083L188.894 43.4565H166.204L162.03 68.5723L161.96 68.9903H161.536H156.239H155.649L155.746 68.4082L165.176 11.7178L165.246 11.2999H165.67H170.967H171.557L171.46 11.8819Z" stroke="white" stroke-opacity="0.85"/>
<path d="M235.612 11.7983L234.672 17.383H212.061L208.754 37.3321H231.365L230.429 42.9549H207.814L204.51 62.8625H227.125L226.185 68.4887H198.276L207.704 11.7983H235.612Z" fill="white"/>
<path d="M235.612 11.2983H236.203L236.105 11.8813L235.166 17.466L235.095 17.883H234.672H212.485L209.344 36.8321H231.365H231.955L231.858 37.4143L230.922 43.037L230.852 43.4549H230.429H208.238L205.1 62.3625H227.125H227.715L227.618 62.9449L226.678 68.5711L226.608 68.9887H226.185H198.276H197.686L197.783 68.4067L207.211 11.7163L207.28 11.2983H207.704H235.612Z" stroke="white" stroke-opacity="0.85"/>
<path d="M254.243 38.4082C250.689 37.0785 247.973 35.2031 246.081 32.782C244.191 30.3644 243.537 27.3699 244.139 23.8056C244.718 20.3484 246.383 17.3712 249.134 14.8707C251.892 12.3702 254.932 11.1199 258.262 11.1199C261.544 11.1199 264.162 12.3702 266.113 14.8707C267.166 16.2004 267.879 18.0896 268.256 20.5349L263.111 22.5277C262.809 20.8008 262.347 19.5402 261.719 18.7424C260.643 17.3574 259.179 16.6667 257.323 16.6667C255.472 16.6667 253.781 17.3574 252.24 18.7424C250.702 20.1239 249.762 21.8094 249.437 23.8056C249.108 25.8019 249.476 27.4908 250.526 28.8723C251.628 30.2815 253.267 31.5732 255.446 32.7406C259.456 34.1774 262.659 36.4534 265.062 39.5618C267.667 42.9431 268.568 47.0151 267.768 51.7744C266.965 56.5579 264.701 60.6437 260.955 64.0319C257.212 67.4235 253.092 69.1262 248.611 69.1262C244.081 69.1262 240.523 67.4235 237.941 64.0215C235.837 61.3068 234.838 57.8116 234.936 53.5255L240.347 51.6155C240.097 55.3111 240.734 58.1432 242.263 60.1118C244.064 62.3982 246.497 63.5414 249.55 63.5414C252.604 63.5414 255.407 62.3844 257.967 60.0842C260.519 57.784 262.058 55.0175 262.581 51.7744C263.111 48.5555 262.497 45.789 260.744 43.475C259.088 41.3474 256.923 39.6585 254.243 38.4082Z" fill="white"/>
<path d="M245.687 33.0899L245.687 33.09C247.644 35.5943 250.437 37.5153 254.049 38.8696C256.655 40.0883 258.749 41.7261 260.347 43.7795C262.005 45.9699 262.598 48.5928 262.088 51.6932L262.087 51.6947C261.583 54.8196 260.104 57.4849 257.632 59.7128C255.151 61.9421 252.464 63.0414 249.55 63.0414C246.642 63.0414 244.358 61.962 242.657 59.8038C241.234 57.97 240.6 55.2798 240.846 51.6493L240.897 50.8911L240.181 51.144L234.77 53.054L234.444 53.1689L234.436 53.5141C234.337 57.8844 235.355 61.4998 237.544 64.3258C240.227 67.8595 243.936 69.6262 248.611 69.6262C253.232 69.6262 257.469 67.8658 261.291 64.4024C265.117 60.9416 267.439 56.7557 268.261 51.8572M245.687 33.0899L267.768 51.7744M245.687 33.0899C243.696 30.5427 243.025 27.3998 243.646 23.7231M245.687 33.0899L243.646 23.7231M268.261 51.8572L267.768 51.7744M268.261 51.8572C268.261 51.8572 268.261 51.8573 268.261 51.8573L267.768 51.7744M268.261 51.8572C269.081 46.9807 268.16 42.7632 265.458 39.2567L265.458 39.256C262.999 36.0752 259.726 33.7496 255.65 32.2825M267.768 51.7744C268.568 47.0151 267.667 42.9431 265.062 39.5618C262.659 36.4534 259.456 34.1774 255.446 32.7406M255.65 32.2825C255.661 32.2883 255.672 32.2941 255.682 32.2999L255.446 32.7406M255.65 32.2825C253.529 31.1421 251.964 29.8974 250.922 28.567M255.65 32.2825C255.638 32.2783 255.627 32.2741 255.615 32.2699L255.446 32.7406M255.446 32.7406L250.922 28.567M250.922 28.567C250.923 28.5679 250.923 28.5688 250.924 28.5697L250.526 28.8723L250.92 28.5643C250.92 28.5652 250.921 28.5661 250.922 28.567ZM250.922 28.567C249.969 27.3127 249.62 25.7692 249.93 23.8868L249.93 23.886C250.236 22.0065 251.117 20.4226 252.574 19.1144L252.574 19.1143C254.035 17.8011 255.611 17.1667 257.323 17.1667C259.036 17.1667 260.349 17.7942 261.325 19.0492L261.326 19.0515C261.878 19.7527 262.321 20.9163 262.619 22.614L262.724 23.214L263.292 22.994L268.436 21.0011L268.811 20.8559L268.75 20.4587C268.365 17.966 267.632 15.9836 266.506 14.5616M250.922 28.567L249.437 23.8056C249.762 21.8094 250.702 20.1239 252.24 18.7424C253.781 17.3574 255.472 16.6667 257.323 16.6667C259.179 16.6667 260.643 17.3574 261.719 18.7424C262.285 19.4612 262.716 20.5556 263.017 22.0282L262.931 22.0615L263.111 22.5277L263.604 22.4415C263.598 22.4088 263.592 22.3762 263.586 22.3437L268.256 20.5349C267.879 18.0896 267.166 16.2004 266.113 14.8707M266.506 14.5616C266.506 14.5621 266.507 14.5626 266.507 14.5631L266.113 14.8707M266.506 14.5616C264.456 11.9358 261.691 10.6199 258.262 10.6199C254.793 10.6199 251.636 11.927 248.798 14.5003L248.798 14.5007C245.969 17.0718 244.245 20.1481 243.646 23.7231M266.506 14.5616C266.505 14.5611 266.505 14.5606 266.505 14.5602L266.113 14.8707M266.113 14.8707C264.162 12.3702 261.544 11.1199 258.262 11.1199C254.932 11.1199 251.892 12.3702 249.134 14.8707M244.139 23.8056C244.718 20.3484 246.383 17.3712 249.134 14.8707M244.139 23.8056C243.537 27.3699 244.191 30.3644 246.081 32.782C247.973 35.2031 250.689 37.0785 254.243 38.4082C256.923 39.6585 259.088 41.3474 260.744 43.475L249.134 14.8707M244.139 23.8056L243.646 23.7231M244.139 23.8056L243.646 23.7224C243.646 23.7226 243.646 23.7229 243.646 23.7231M249.134 14.8707L243.646 23.7231" stroke="white" stroke-opacity="0.85"/>
<path d="M271.259 68.4886L280.687 11.7982H285.984L277.497 62.8624H296.917L295.978 68.4886H271.259Z" fill="white"/>
<path d="M271.259 68.9886H270.669L270.766 68.4066L280.194 11.7161L280.263 11.2982H280.687H285.984H286.574L286.477 11.8801L278.087 62.3624H296.917H297.508L297.411 62.9448L296.471 68.571L296.401 68.9886H295.978H271.259Z" stroke="white" stroke-opacity="0.85"/>
<path d="M339.477 11.7983L338.538 17.383H315.923L312.616 37.3321H335.23L334.29 42.9549H311.679L308.375 62.8625H330.99L330.05 68.4887H302.138L311.566 11.7983H339.477Z" fill="white"/>
<path d="M339.477 11.2983H340.069L339.97 11.8813L339.031 17.466L338.96 17.883H338.538H316.347L313.206 36.8321H335.23H335.821L335.723 37.4145L334.784 43.0373L334.714 43.4549H334.29H312.103L308.965 62.3625H330.99H331.58L331.483 62.9449L330.543 68.5711L330.473 68.9887H330.05H302.138H301.548L301.645 68.4067L311.072 11.7163L311.142 11.2983H311.566H339.477Z" stroke="white" stroke-opacity="0.85"/>
<path d="M357.656 45.6277L344.885 11.7978H350.934L361.34 39.366L380.907 11.7978H386.992L362.953 45.6277L359.161 68.4883H353.864L357.656 45.6277Z" fill="white"/>
<path d="M351.401 11.6213L361.476 38.3105L380.5 11.5084L380.649 11.2978H380.907H386.992H387.96L387.399 12.0875L363.427 45.8233L359.654 68.5701L359.585 68.9883H359.161H353.864H353.274L353.37 68.4065L357.14 45.6785L344.417 11.9744L344.162 11.2978H344.885H350.934H351.279L351.401 11.6213Z" stroke="white" stroke-opacity="0.85"/>
<path d="M407.953 54.4072L437.969 11L429.403 68.4883H426.399L433.198 23.0088L406.978 60.7898L392.064 23.0883L385.303 68.4883H382.298L390.864 11.0795L407.953 54.4072Z" fill="white"/>
<path d="M465.581 44.5113L461.035 20.8529L449.389 44.5113H465.581ZM470.199 68.4875L466.215 47.6612H447.848L437.594 68.4875H434.401L462.423 11.6002L473.356 68.4875H470.199Z" fill="white"/>
<path d="M489.996 15.3091L485.45 45.7093H494.468C498.399 45.7093 501.99 44.2208 505.245 41.254C508.503 38.2872 510.442 34.6987 511.069 30.4712C511.193 29.5905 511.255 28.7409 511.255 27.9154C511.255 24.8036 510.328 22.0751 508.481 19.7369C506.097 16.7839 502.939 15.3091 499.008 15.3091H489.996ZM494.92 48.9041C494.614 48.9248 494.315 48.9386 494.016 48.9386H484.998L482.068 68.4871H479.066L487.483 12.0764H501.417C505.375 12.6635 508.549 14.456 510.955 17.4643C513.186 20.3102 514.298 23.6189 514.298 27.3974C514.298 28.3817 514.22 29.404 514.074 30.4712C513.32 35.5759 510.981 39.9243 507.05 43.5162C504.318 46.0167 501.391 47.6504 498.26 48.4206L507.502 68.4871H503.817L494.92 48.9041Z" fill="white"/>
<path d="M558.174 59.5136L560.161 61.6653C554.229 66.6664 547.758 69.1669 540.746 69.1669C533.205 69.1669 527.212 66.3486 522.75 60.7086C519.244 56.2947 517.491 51.1347 517.491 45.2287C517.491 43.6331 517.618 41.9856 517.865 40.2829C519.043 32.3323 522.701 25.5214 528.838 19.871C534.971 14.2172 541.807 11.3989 549.345 11.3989C556.356 11.3989 562.079 13.9133 566.512 18.9385L563.923 21.0937C559.992 16.811 554.967 14.6696 548.857 14.6696C542.194 14.6696 536.135 17.1702 530.678 22.1713C525.215 27.1689 521.963 33.2096 520.909 40.2829C520.688 41.7991 520.571 43.2635 520.571 44.6727C520.571 49.9121 522.135 54.4987 525.267 58.436C529.247 63.4371 534.571 65.9342 541.234 65.9342C547.345 65.9342 552.99 63.7928 558.174 59.5136Z" fill="white"/>
<path d="M594.124 44.5113L589.578 20.8529L577.932 44.5113H594.124ZM598.742 68.4875L594.758 47.6612H576.391L566.141 68.4875H562.944L590.966 11.6002L601.899 68.4875H598.742Z" fill="white"/>
<path d="M607.607 68.4886L616.023 12.0779H619.028L611.099 65.2973H631.349L630.858 68.4886H607.607Z" fill="white"/>
<path d="M541.208 67.4061L534.005 78.8036H531L537.715 67.4234L541.208 67.4061Z" fill="white"/>
<path d="M109.866 100.723L106.22 120.973H112.341C115.183 120.973 117.788 119.978 120.158 117.999C122.526 116.016 123.963 113.62 124.477 110.819C124.978 108.024 124.389 105.645 122.737 103.673C121.072 101.707 118.832 100.723 115.989 100.723H109.866ZM105.447 125.262L102.887 139.519H98.5295L106.282 96.4508H118.331C121.729 96.8963 124.409 98.2985 126.367 100.654C128.711 103.49 129.537 106.871 128.835 110.819C128.113 114.821 126.067 118.223 122.698 121.042C119.332 123.853 115.625 125.262 111.567 125.262H105.447Z" fill="white"/>
<path d="M159.888 96.4497L159.11 100.691H140.512L137.794 115.843H156.395L155.621 120.125H137.023L134.307 135.239H152.902L152.125 139.522H129.176L136.929 96.4497H159.888Z" fill="white"/>
<path d="M170.387 100.723L166.745 120.973H172.862C175.704 120.973 178.309 119.978 180.673 117.999C183.047 116.016 184.488 113.62 185.005 110.819C185.496 108.024 184.92 105.645 183.252 103.673C181.6 101.707 179.346 100.723 176.504 100.723H170.387ZM172.302 125.262H165.974L163.408 139.519H159.051L166.803 96.4508H178.855C182.25 96.8963 184.93 98.2985 186.884 100.654C189.239 103.49 190.058 106.871 189.356 110.819C188.634 114.821 186.595 118.223 183.239 121.028C180.891 122.962 178.845 124.133 177.093 124.544L184.322 139.519H179.037L172.302 125.262Z" fill="white"/>
<path d="M205.978 116.67C203.058 115.658 200.814 114.235 199.256 112.394C197.702 110.553 197.178 108.277 197.663 105.569C198.141 102.941 199.513 100.685 201.777 98.7824C204.043 96.8828 206.544 95.9365 209.285 95.9365C211.985 95.9365 214.134 96.8828 215.744 98.7824C216.609 99.7909 217.201 101.228 217.497 103.082L213.266 104.602C213.022 103.29 212.642 102.333 212.128 101.722C211.237 100.668 210.037 100.147 208.508 100.147C206.99 100.147 205.591 100.668 204.326 101.722C203.064 102.772 202.29 104.056 202.021 105.569C201.757 107.089 202.06 108.37 202.925 109.42C203.825 110.491 205.178 111.468 206.97 112.359C210.261 113.447 212.905 115.178 214.876 117.547C217.022 120.113 217.763 123.204 217.097 126.82C216.44 130.45 214.57 133.565 211.494 136.132C208.414 138.712 205.029 140 201.347 140C197.617 140 194.691 138.712 192.57 136.118C190.84 134.056 190.014 131.41 190.102 128.15L194.547 126.686C194.349 129.507 194.866 131.662 196.125 133.151C197.604 134.892 199.608 135.755 202.118 135.755C204.629 135.755 206.938 134.878 209.032 133.137C211.139 131.383 212.404 129.279 212.84 126.82C213.266 124.375 212.765 122.275 211.328 120.507C209.962 118.901 208.183 117.612 205.978 116.67Z" fill="white"/>
<path d="M248.002 100.146C243.02 100.146 238.434 101.88 234.265 105.358C230.093 108.836 227.566 113.018 226.675 117.905C225.814 122.817 226.838 127.006 229.758 130.491C232.669 133.99 236.62 135.734 241.602 135.734C246.61 135.734 251.192 133.99 255.364 130.491C259.533 127.006 262.047 122.817 262.919 117.905C263.8 113.018 262.789 108.836 259.875 105.358C256.968 101.88 253.003 100.146 248.002 100.146ZM263.54 102.312C267.159 106.629 268.421 111.827 267.309 117.905C266.213 124.029 263.085 129.244 257.917 133.551C252.746 137.848 247.049 139.999 240.825 139.999C234.63 139.999 229.719 137.848 226.096 133.551C222.467 129.244 221.205 124.029 222.295 117.905C223.41 111.827 226.545 106.629 231.716 102.312C236.88 97.9978 242.565 95.8427 248.769 95.8427C254.987 95.8427 259.907 97.9978 263.54 102.312Z" fill="white"/>
<path d="M280.956 96.4497L300.826 132.697L307.343 96.4497H311.697L303.944 139.522H298.816L279.441 104.148L273.08 139.522H268.722L276.478 96.4497H280.956Z" fill="white"/>
<path d="M334.283 117.179L331.718 103.723L324.336 117.179H334.283ZM334.96 96.4493L343.152 139.521H338.55L335.083 121.424H321.988L311.92 139.521H307.282L331.165 96.4493H334.96Z" fill="white"/>
<path d="M346.669 139.521L354.432 96.4485H358.783L351.801 135.241H367.778L367.004 139.521H346.669Z" fill="white"/>
<path d="M407.235 100.689L400.249 139.52H395.914L402.903 100.689H392.269L393.046 96.448H418.603L417.83 100.689H407.235Z" fill="white"/>
<path d="M426.632 100.723L422.973 120.973H429.097C431.936 120.973 434.547 119.978 436.908 117.999C439.279 116.016 440.726 113.62 441.24 110.819C441.731 108.024 441.152 105.645 439.487 103.673C437.835 101.707 435.581 100.723 432.742 100.723H426.632ZM428.544 125.262H422.209L419.643 139.519H415.286L423.038 96.4508H435.093C438.489 96.8963 441.165 98.2985 443.119 100.654C445.471 103.49 446.29 106.871 445.597 110.819C444.872 114.821 442.833 118.223 439.474 121.028C437.136 122.962 435.08 124.133 433.328 124.544L440.554 139.519H435.269L428.544 125.262Z" fill="white"/>
<path d="M469.561 117.179L466.996 103.723L459.62 117.179H469.561ZM470.254 96.4493L478.43 139.521H473.835L470.368 121.424H457.272L447.204 139.521H442.567L466.449 96.4493H470.254Z" fill="white"/>
<path d="M494.371 96.4497L486.615 139.522H482.257L490.026 96.4497H494.371Z" fill="white"/>
<path d="M505.987 96.4497L525.86 132.697L532.371 96.4497H536.728L528.979 139.522H523.841L504.475 104.148L498.111 139.522H493.753L501.503 96.4497H505.987Z" fill="white"/>
<path d="M566.518 96.4497L565.744 100.691H547.146L544.427 115.843H563.025L562.254 120.125H543.653L540.934 135.239H559.542L558.762 139.522H535.816L543.562 96.4497H566.518Z" fill="white"/>
<path d="M577.024 100.723L573.366 120.973H579.489C582.335 120.973 584.939 119.978 587.3 117.999C589.671 116.016 591.118 113.62 591.632 110.819C592.123 108.024 591.544 105.645 589.879 103.673C588.227 101.707 585.974 100.723 583.135 100.723H577.024ZM578.936 125.262H572.605L570.039 139.519H565.681L573.431 96.4508H585.486C588.881 96.8963 591.564 98.2985 593.512 100.654C595.863 103.49 596.682 106.871 595.99 110.819C595.264 114.821 593.225 118.223 589.866 121.028C587.528 122.962 585.473 124.133 583.72 124.544L590.946 139.519H585.661L578.936 125.262Z" fill="white"/>
</svg>
